<svg xmlns="http://www.w3.org/2000/svg" width="22" height="20" viewBox="0 0 22 20">
    <g fill="#EE4036" fill-rule="nonzero">
        <path d="M11.068 7.992a.552.552 0 0 0-.547.556v8.668l-2.685-2.794a.502.502 0 0 0-.74 0c-.214.217-.197.569.017.785l3.476 3.52a.553.553 0 0 0 .781 0l3.47-3.52a.561.561 0 0 0 0-.785c-.213-.217-.628-.217-.842 0l-2.382 2.347V8.548a.552.552 0 0 0-.548-.556z"/>
        <path d="M21.971 8.35a4.886 4.886 0 0 0-4.892-4.887c-.324 0-.63.061-.919.13A5.995 5.995 0 0 0 10.712.067C7.742.067 5.26 2.262 4.8 5.17a4.052 4.052 0 0 0-.685-.056C1.807 5.114 0 6.853 0 9.139c0 2.286 1.807 4.025 4.114 4.025h4.353a.552.552 0 0 0 .548-.555.552.552 0 0 0-.548-.556H4.114c-1.693 0-3.018-1.25-3.018-2.914 0-1.663 1.326-2.94 3.018-2.94.306 0 .608.06.892.15l.104.04a.54.54 0 0 0 .478-.068.554.554 0 0 0 .236-.428c.131-2.64 2.279-4.709 4.888-4.709a4.905 4.905 0 0 1 4.606 3.267.58.58 0 0 0 .427.36.548.548 0 0 0 .262-.012c.395-.12.729-.199 1.072-.199 2.093 0 3.797 1.653 3.797 3.75 0 2.106-1.668 3.703-3.797 3.703h-3.41a.552.552 0 0 0-.547.556c0 .306.245.555.548.555h3.409c2.743 0 4.892-2.085 4.892-4.813z"/>
    </g>
</svg>
