<svg xmlns="http://www.w3.org/2000/svg" width="23" height="59" viewBox="0 0 23 59">
    <path fill="#D9D9D9" fill-rule="nonzero" d="M.607 39.436c2.047 5.12 10.444 8.866 15.593 6.198 1.914 4.517 2.431 14.895-7.689 11.81-.027.014-.438-.154-.842-.474 2.27.523 4.527-1.209 4.527-3.604 0-2.038-1.662-3.699-3.7-3.699-5.283 0-4.703 8.17.887 8.91 2.315.303 4.082-.01 5.408-.726 4.764-2.583 3.184-8.226 2.155-12.448.776-.542 4.488-2.209 5.225-5.966.88-6.613-3.428-9.221-8.58-8.698l-1.461-6.637c1.65-1.41 3.29-2.916 4.482-4.743 3.636-5.567 2.907-12.725-1.176-17.973-.404-.517-1.113-.512-1.524 0-4.541 5.642-4.65 10.169-4.128 13.7.223 1.369.558 2.73.73 4.103-1.321 1.157-2.759 2.395-4.126 3.776-4.114 4.28-7.899 10.3-5.78 16.471zm16.01 5.042L14.29 33.915c6.587-.085 7.275 7.648 2.328 10.563zM12.44 7.576c.743-1.53 1.654-3.302 3.151-2.923 2.15.542 2.637 3.966 1.519 6.983-1.044 2.818-3.148 4.504-3.597 5.067-.843 1.057-1.705 1.877-2.485 2.103-.442-2.357-.226-7.864 1.412-11.23zm-.983 17.093l1.34 6.07c-5.462.96-8.16 8.345-2.939 10.837.593.283.653.13.226-.367-2.229-2.602-.58-7.07 3.415-7.292.835 3.782 1.58 7.163 2.414 10.933-4.921 2.293-11.21.316-12.86-5.228-.21-.311-.232-.646-.234-1.005-1.111-6.792 4.189-10.224 8.638-13.948z" opacity=".1"/>
</svg>
