<svg xmlns="http://www.w3.org/2000/svg" width="160" height="410" viewBox="0 0 160 410">
    <path fill="#D9D9D9" fill-rule="nonzero"
          d="M5.046 272.984c14.541 36.359 74.177 62.965 110.747 44.021 13.589 32.076 17.264 105.788-54.609 83.876-.196.1-3.115-1.095-5.983-3.366 16.126 3.711 32.156-8.584 32.156-25.596 0-14.475-11.806-26.272-26.277-26.272-37.523 0-33.41 58.031 6.298 63.277 16.436 2.159 28.988-.061 38.409-5.154 33.831-18.346 22.61-58.424 15.301-88.407 5.514-3.848 31.879-15.686 37.108-42.371 6.256-46.967-24.341-65.493-60.933-61.778l-10.379-47.135c11.726-10.015 23.363-20.71 31.835-33.687 25.819-39.543 20.646-90.375-8.355-127.648-2.865-3.673-7.903-3.641-10.824-.008-32.25 40.077-33.023 72.226-29.32 97.307 1.587 9.72 3.963 19.392 5.182 29.14-9.38 8.215-19.586 17.011-29.296 26.817-29.222 30.404-56.102 73.155-41.06 116.984zm113.713 35.811c-5.743-26.068-10.889-49.388-16.531-75.023 46.783-.601 51.664 54.321 16.531 75.023zM89.08 46.707c5.278-10.874 11.746-23.455 22.382-20.765 15.265 3.855 18.727 28.174 10.784 49.598-7.414 20.013-22.354 31.991-25.543 35.985-5.987 7.506-12.109 13.333-17.651 14.941-3.14-16.746-1.603-55.855 10.028-79.759zm-6.983 121.397l9.516 43.106c-38.788 6.829-57.951 59.274-20.869 76.975 4.209 2.004 4.634.914 1.603-2.612-15.828-18.475-4.122-50.205 24.255-51.788 5.927 26.865 11.225 50.874 17.144 77.647-34.953 16.29-79.611 2.244-91.341-37.129-1.485-2.208-1.641-4.584-1.657-7.137-7.893-48.237 29.752-72.613 61.349-99.062z"
          opacity=".2"/>
</svg>
