<svg xmlns="http://www.w3.org/2000/svg" width="15" height="21" viewBox="0 0 15 21">
    <path fill="#000" fill-rule="nonzero" stroke="#393E41" d="M12.362 1.56a1.211 1.211 0 0 0-1.236.018.372.372 0 0 0-.052.037L5.654 6.2H1.4a.4.4 0 0 0-.4.4v7.6a.398.398 0 0 0 .4.4l4.244-.002 5.417 4.976a.39.39 0 0 0 .065.048c.196.119.414.178.632.178A1.249 1.249 0 0 0 13 18.537V2.663a1.25 1.25 0 0 0-.638-1.102zM12.2 18.538a.459.459 0 0 1-.232.406.42.42 0 0 1-.4.01L6.2 14.022V12.2a.4.4 0 1 0-.8 0v1.598l-3.6.002V7h3.6v1.6a.4.4 0 1 0 .8 0V6.786l5.362-4.536a.418.418 0 0 1 .406.007.458.458 0 0 1 .232.405v15.876z"/>
</svg>
